<svg width="31" height="30" viewBox="0 0 31 30" fill="none" xmlns="http://www.w3.org/2000/svg">
<circle cx="15.0273" cy="15.0002" r="15" fill="#FAE4F0"/>
<path d="M19.5273 18.7502V15.5002H14.9961C14.8635 15.5002 14.7363 15.4476 14.6425 15.3538C14.5488 15.26 14.4961 15.1329 14.4961 15.0002C14.4961 14.8676 14.5488 14.7405 14.6425 14.6467C14.7363 14.5529 14.8635 14.5002 14.9961 14.5002H19.5273V11.2502C19.5268 10.7863 19.3423 10.3414 19.0142 10.0134C18.6862 9.68527 18.2413 9.50074 17.7773 9.50024H11.7773C11.3134 9.50074 10.8685 9.68527 10.5405 10.0134C10.2124 10.3414 10.0278 10.7863 10.0273 11.2502V18.7502C10.0278 19.2142 10.2124 19.6591 10.5405 19.9871C10.8685 20.3152 11.3134 20.4997 11.7773 20.5002H17.7773C18.2413 20.4997 18.6862 20.3152 19.0142 19.9871C19.3423 19.6591 19.5268 19.2142 19.5273 18.7502Z" fill="#F78585"/>
<path d="M22.3202 15.5002L20.6739 17.1468C20.5841 17.2413 20.5348 17.3672 20.5364 17.4976C20.5381 17.628 20.5906 17.7525 20.6828 17.8447C20.775 17.9369 20.8996 17.9895 21.03 17.9911C21.1604 17.9928 21.2863 17.9435 21.3808 17.8537L23.8808 15.3537C23.9745 15.2599 24.0271 15.1328 24.0271 15.0002C24.0271 14.8677 23.9745 14.7405 23.8808 14.6468L21.3808 12.1468C21.2863 12.057 21.1604 12.0076 21.03 12.0093C20.8996 12.011 20.775 12.0635 20.6828 12.1557C20.5906 12.2479 20.5381 12.3725 20.5364 12.5029C20.5348 12.6333 20.5841 12.7591 20.6739 12.8537L22.3202 14.5002H19.5273V15.5002H22.3202Z" fill="#F78585"/>
</svg>
