<svg width="40" height="40" viewBox="0 0 40 40" fill="none" xmlns="http://www.w3.org/2000/svg">
<circle cx="20" cy="20" r="20" fill="#FAE4F0"/>
<path d="M13.6668 10C11.0876 10 9 12.2366 9 15V25C9 27.7634 11.0876 30 13.6668 30C16.2461 30 18.3336 27.7634 18.3336 25V15C18.3336 12.2366 16.2461 10 13.6668 10ZM15.6669 20H11.6667V15C11.6667 13.817 12.5626 12.8571 13.6668 12.8571C14.771 12.8571 15.6669 13.817 15.6669 15V20ZM21.4879 18.6741C21.342 18.5179 21.0962 18.5357 20.9754 18.7098C19.0878 21.5 19.292 25.4107 21.6379 27.9241C23.9838 30.4375 27.6339 30.6562 30.2381 28.6339C30.4048 28.5045 30.4173 28.2411 30.2715 28.0848L21.4879 18.6741ZM31.0632 17.8259C28.7173 15.3125 25.0672 15.0937 22.4629 17.1161C22.2962 17.2455 22.2837 17.5089 22.4296 17.6652L31.2132 27.0759C31.359 27.2321 31.6048 27.2143 31.7257 27.0402C33.6132 24.2455 33.4132 20.3393 31.0632 17.8259Z" fill="#F78585"/>
</svg>
