<svg width="50" height="50" viewBox="0 0 50 50" fill="none" xmlns="http://www.w3.org/2000/svg">
<circle cx="25" cy="25" r="25" fill="#FAE4F0"/>
<path d="M13.8 18.7998L13.2188 17.9861L12.8 18.2852V18.7998H13.8ZM25 10.7998L25.5813 9.98607C25.2336 9.73772 24.7665 9.73772 24.4188 9.98607L25 10.7998ZM36.2 18.7998H37.2V18.2852L36.7813 17.9861L36.2 18.7998ZM17 23.5998V22.5998H16V23.5998H17ZM23.4 23.5998H24.4V22.5998H23.4V23.5998ZM14.8 33.9998V18.7998H12.8V33.9998H14.8ZM14.3813 19.6135L25.5813 11.6135L24.4188 9.98607L13.2188 17.9861L14.3813 19.6135ZM24.4188 11.6135L35.6188 19.6135L36.7813 17.9861L25.5813 9.98607L24.4188 11.6135ZM35.2 18.7998V33.9998H37.2V18.7998H35.2ZM18 33.9998V23.5998H16V33.9998H18ZM17 24.5998H23.4V22.5998H17V24.5998ZM22.4 23.5998V33.9998H24.4V23.5998H22.4ZM21 29.3998H23.4V27.3998H21V29.3998ZM30.4 22.7998V29.1998H32.4V22.7998H30.4ZM33.6 13.1998V17.1998H35.6V13.1998H33.6Z" fill="#F78585"/>
</svg>
