<svg width="40" height="40" viewBox="0 0 40 40" fill="none" xmlns="http://www.w3.org/2000/svg">
<circle cx="20" cy="20" r="20" fill="#FAE4F0"/>
<path d="M18.0402 22.9C18.1469 23.4867 18.3869 23.94 18.7602 24.26C19.1469 24.5667 19.6602 24.72 20.3002 24.72C21.1269 24.72 21.7269 24.38 22.1002 23.7C22.4736 23.0067 22.6602 21.8467 22.6602 20.22C22.3536 20.6467 21.9202 20.98 21.3602 21.22C20.8136 21.46 20.2202 21.58 19.5802 21.58C18.7269 21.58 17.9536 21.4067 17.2602 21.06C16.5802 20.7 16.0402 20.1733 15.6402 19.48C15.2402 18.7733 15.0402 17.92 15.0402 16.92C15.0402 15.44 15.4802 14.2667 16.3602 13.4C17.2402 12.52 18.4402 12.08 19.9602 12.08C21.8536 12.08 23.1869 12.6867 23.9602 13.9C24.7469 15.1133 25.1402 16.94 25.1402 19.38C25.1402 21.1133 24.9869 22.5333 24.6802 23.64C24.3869 24.7467 23.8736 25.5867 23.1402 26.16C22.4202 26.7333 21.4336 27.02 20.1802 27.02C19.1936 27.02 18.3536 26.8333 17.6602 26.46C16.9669 26.0733 16.4336 25.5733 16.0602 24.96C15.7002 24.3333 15.4936 23.6467 15.4402 22.9H18.0402ZM20.1602 19.3C20.8536 19.3 21.4002 19.0867 21.8002 18.66C22.2002 18.2333 22.4002 17.66 22.4002 16.94C22.4002 16.1533 22.1869 15.5467 21.7602 15.12C21.3469 14.68 20.7802 14.46 20.0602 14.46C19.3402 14.46 18.7669 14.6867 18.3402 15.14C17.9269 15.58 17.7202 16.1667 17.7202 16.9C17.7202 17.6067 17.9202 18.1867 18.3202 18.64C18.7336 19.08 19.3469 19.3 20.1602 19.3Z" fill="#F78585"/>
</svg>
