<svg width="50" height="50" viewBox="0 0 50 50" fill="none" xmlns="http://www.w3.org/2000/svg">
<circle cx="25" cy="25" r="25" fill="#FAE4F0"/>
<g clip-path="url(#clip0)">
<path d="M17 28C18.1046 28 19 27.1046 19 26C19 24.8954 18.1046 24 17 24C15.8954 24 15 24.8954 15 26C15 27.1046 15.8954 28 17 28Z" fill="#F78585"/>
<path d="M25 28C26.1046 28 27 27.1046 27 26C27 24.8954 26.1046 24 25 24C23.8954 24 23 24.8954 23 26C23 27.1046 23.8954 28 25 28Z" fill="#F78585"/>
<path d="M33 28C34.1046 28 35 27.1046 35 26C35 24.8954 34.1046 24 33 24C31.8954 24 31 24.8954 31 26C31 27.1046 31.8954 28 33 28Z" fill="#F78585"/>
</g>
<defs>
<clipPath id="clip0">
<rect width="20" height="20" fill="white" transform="translate(15 16)"/>
</clipPath>
</defs>
</svg>
