<svg width="30" height="30" viewBox="0 0 30 30" fill="none" xmlns="http://www.w3.org/2000/svg">
<circle cx="15" cy="14.9998" r="15" fill="#FAE4F0"/>
<path d="M10 21.9998H20V19.4998C19.9989 18.5718 19.6299 17.6822 18.9737 17.0261C18.3176 16.3699 17.4279 16.0008 16.5 15.9998H13.5C12.5721 16.0008 11.6824 16.3699 11.0263 17.0261C10.3701 17.6822 10.0011 18.5718 10 19.4998V21.9998Z" fill="#F78585"/>
<path d="M11.5 11.4998C11.5 12.192 11.7053 12.8687 12.0899 13.4443C12.4744 14.0198 13.0211 14.4684 13.6606 14.7333C14.3001 14.9982 15.0039 15.0676 15.6828 14.9325C16.3618 14.7975 16.9854 14.4641 17.4749 13.9746C17.9644 13.4851 18.2977 12.8615 18.4327 12.1826C18.5678 11.5036 18.4985 10.7999 18.2336 10.1604C17.9687 9.52082 17.5201 8.9742 16.9445 8.58961C16.3689 8.20503 15.6922 7.99976 15 7.99976C14.0717 7.99976 13.1815 8.3685 12.5251 9.02488C11.8687 9.68126 11.5 10.5715 11.5 11.4998Z" fill="#F78585"/>
</svg>
