<svg width="40" height="40" viewBox="0 0 40 40" fill="none" xmlns="http://www.w3.org/2000/svg">
<circle cx="20" cy="20" r="20" fill="#FAE4F0"/>
<path d="M17.1814 14.3938C16.9387 14.3938 16.7419 14.5905 16.7419 14.8332V15.303C16.7419 15.5457 16.9387 15.7424 17.1814 15.7424C17.4241 15.7424 17.6208 15.5457 17.6208 15.303V14.8332C17.6208 14.5906 17.424 14.3938 17.1814 14.3938Z" fill="#F78585"/>
<path d="M22.8186 14.3938C22.5758 14.3938 22.3792 14.5905 22.3792 14.8332V15.303C22.3792 15.5457 22.5758 15.7424 22.8186 15.7424C23.0614 15.7424 23.2581 15.5457 23.2581 15.303V14.8332C23.2581 14.5906 23.0613 14.3938 22.8186 14.3938Z" fill="#F78585"/>
<path d="M21.7223 17.8125C21.5519 17.6396 21.2736 17.6379 21.1009 17.8083C20.9405 17.9665 20.556 18.1513 20.0004 18.1513C19.4448 18.1513 19.0604 17.9665 18.8999 17.8083C18.7271 17.6378 18.4488 17.6397 18.2785 17.8125C18.108 17.9853 18.1099 18.2635 18.2826 18.4339C18.6611 18.8073 19.3032 19.0302 20.0004 19.0302C20.6975 19.0302 21.3396 18.8073 21.7181 18.4339C21.8909 18.2635 21.8928 17.9853 21.7223 17.8125Z" fill="#F78585"/>
<path d="M17.652 12.9849H16.7126C16.47 12.9849 16.2732 13.1816 16.2732 13.4243C16.2732 13.6671 16.47 13.8638 16.7126 13.8638H17.652C17.8947 13.8638 18.0915 13.6671 18.0915 13.4243C18.0915 13.1816 17.8946 12.9849 17.652 12.9849Z" fill="#F78585"/>
<path d="M23.288 12.9849H22.3486C22.1059 12.9849 21.9092 13.1816 21.9092 13.4243C21.9092 13.6671 22.1059 13.8638 22.3486 13.8638H23.288C23.5308 13.8638 23.7274 13.6671 23.7274 13.4243C23.7274 13.1816 23.5308 12.9849 23.288 12.9849Z" fill="#F78585"/>
<path d="M29.4112 25.9319L26.2437 24.958C26.2489 24.8623 26.2418 24.7655 26.2193 24.6699C26.1499 24.3763 25.9554 24.1305 25.6856 23.9956L23.7267 23.0162V21.6194C25.1923 20.6001 26.2238 18.9979 26.4817 17.1515H26.7429C27.5994 17.1515 28.334 16.5151 28.4154 15.7026C28.4609 15.2473 28.312 14.7927 28.0067 14.4554C27.859 14.2921 27.6805 14.1629 27.4843 14.0726V9.19699C27.4843 7.40075 26.0229 5.93937 24.2266 5.93937C24.2243 5.93937 24.1938 5.93937 24.1523 5.93943C23.3612 5.35584 22.1988 5 20.9095 5C18.1644 5 16.9033 5.57187 15.4432 6.23404C14.6631 6.58776 13.8566 6.9535 12.7133 7.28784C12.5933 7.32294 12.4939 7.40749 12.44 7.5204C12.3862 7.63325 12.383 7.76373 12.4312 7.8791C12.4446 7.9111 12.6409 8.36689 13.1474 8.9206C12.9287 9.18984 12.5147 9.87837 12.5147 11.2323V14.0922C12.009 14.3333 11.64 14.8109 11.5836 15.3728C11.538 15.8282 11.6869 16.2828 11.9922 16.6202C12.2976 16.9579 12.7338 17.1515 13.189 17.1515H13.517C13.7747 18.9984 14.8062 20.6008 16.2722 21.62V23.0161L14.3132 23.9955C14.0434 24.1305 13.8489 24.3763 13.7795 24.6699C13.757 24.7655 13.75 24.8623 13.7551 24.958L10.5876 25.9318C9.21178 26.3548 8.28735 27.6061 8.28735 29.0456V34.5604C8.28735 34.8031 8.48411 34.9998 8.7268 34.9998C8.9695 34.9998 9.16625 34.8031 9.16625 34.5604V29.0456C9.16625 27.9946 9.84125 27.0809 10.846 26.772L14.1407 25.759L14.7223 26.5344L14.0616 27.1952C13.6412 27.6155 13.5374 28.2551 13.8032 28.7868L15.0612 31.3028H13.8633V30.8028C13.8633 30.5601 13.6665 30.3634 13.4238 30.3634C13.1811 30.3634 12.9844 30.5601 12.9844 30.8028V31.3028H11.0753C10.8327 31.3028 10.6359 31.4995 10.6359 31.7422V34.5604C10.6359 34.8031 10.8327 34.9998 11.0753 34.9998H15.7723C16.015 34.9998 16.2118 34.8031 16.2118 34.5604V33.6038L16.7883 34.757C16.8653 34.9109 17.0205 34.9999 17.1817 34.9999C17.2478 34.9999 17.3148 34.9849 17.3779 34.9534C17.595 34.8448 17.683 34.5809 17.5744 34.3638L14.5894 28.3937C14.493 28.2009 14.5307 27.969 14.6831 27.8166L15.6133 26.8862C15.768 26.7316 15.7854 26.4868 15.6542 26.3118L14.6586 24.9844C14.6255 24.9402 14.6296 24.8949 14.6351 24.8718C14.6405 24.8487 14.657 24.8063 14.7064 24.7816L16.4373 23.9162L17.6592 28.1055C17.7272 28.3386 17.971 28.4722 18.2041 28.4044C18.4371 28.3365 18.5709 28.0925 18.5029 27.8595L18.3103 27.1992C18.8507 27.387 19.422 27.4847 19.9996 27.4847C20.5774 27.4847 21.1485 27.3873 21.6887 27.1995L19.9995 32.9908L19.0511 29.7393C18.9832 29.5062 18.7392 29.3724 18.5062 29.4404C18.2732 29.5083 18.1394 29.7523 18.2074 29.9853L19.5777 34.6833C19.6324 34.8708 19.8042 34.9997 19.9995 34.9997C20.1948 34.9997 20.3667 34.8708 20.4214 34.6833L23.5618 23.9162L25.2926 24.7816C25.3421 24.8063 25.3585 24.8488 25.3641 24.8718C25.3695 24.8949 25.3737 24.9402 25.3406 24.9844L24.3449 26.3118C24.2137 26.4867 24.2311 26.7316 24.3857 26.8863L25.3161 27.8166C25.4685 27.969 25.5061 28.2009 25.4098 28.3937L22.4245 34.3639C22.316 34.5809 22.404 34.8449 22.6211 34.9535C22.6842 34.9851 22.7513 35 22.8173 35C22.9785 35 23.1337 34.9109 23.2107 34.757L26.1957 28.7869C26.4616 28.2552 26.3578 27.6156 25.9375 27.1952L25.2767 26.5344L25.8582 25.7591L29.153 26.7721C30.1576 27.0809 30.8326 27.9946 30.8326 29.0457V34.5604C30.8326 34.8031 31.0293 34.9998 31.2721 34.9998C31.5148 34.9998 31.7115 34.8031 31.7115 34.5604V29.0456C31.7115 27.6062 30.7871 26.3548 29.4112 25.9319ZM15.3327 34.1209H11.5147V32.1817H12.9843V32.2119C12.9843 32.4546 13.181 32.6513 13.4237 32.6513C13.6664 32.6513 13.8632 32.4546 13.8632 32.2119V32.1817H15.3327V34.1209ZM15.8061 7.03448C17.2299 6.38884 18.3544 5.8789 20.9095 5.8789C22.5308 5.8789 23.9795 6.55741 24.2795 7.45723C24.3563 7.6875 24.605 7.81178 24.8354 7.73514C25.0656 7.65838 25.19 7.40948 25.1133 7.17926C25.088 7.10344 25.0578 7.02909 25.0237 6.95608C25.9444 7.28456 26.6054 8.16486 26.6054 9.19699V13.9242H26.1055C25.8298 13.9242 25.6056 13.6999 25.6056 13.4243V12.9545C25.6056 10.9172 24.1305 9.41876 24.0677 9.35595C23.9519 9.24005 23.7811 9.19851 23.6246 9.24761C21.1852 10.018 17.7456 10.6673 15.2133 9.38601C14.3122 8.93004 13.7801 8.35061 13.5002 7.96371C14.4331 7.65715 15.1562 7.32921 15.8061 7.03448ZM22.8479 23.225L22.0086 26.1026C21.3936 26.4322 20.7027 26.6059 19.9995 26.6059C19.2968 26.6059 18.6052 26.4324 17.9905 26.1031L17.1511 23.225V22.1348C18.0127 22.5529 18.9791 22.7879 19.9995 22.7879C21.0197 22.7879 21.9861 22.5528 22.8479 22.1344V23.225ZM19.9995 21.9089C16.8749 21.9089 14.333 19.3669 14.333 16.2424C14.333 15.9996 14.1362 15.8029 13.8935 15.8029C13.6508 15.8029 13.4541 15.9996 13.4541 16.2424V16.2726H13.189C12.9817 16.2726 12.7831 16.1844 12.6439 16.0306C12.5029 15.8748 12.4369 15.6723 12.4581 15.4605C12.4951 15.0918 12.8456 14.803 13.2561 14.803H13.8935C14.6538 14.803 15.2723 14.1845 15.2723 13.4242V11.7655C15.2723 11.5228 15.0756 11.3261 14.8329 11.3261C14.5902 11.3261 14.3934 11.5228 14.3934 11.7655V13.4242C14.3934 13.6999 14.1691 13.9241 13.8935 13.9241H13.3936V11.2323C13.3936 10.2098 13.6684 9.7013 13.7953 9.52101C14.0638 9.73277 14.3787 9.94253 14.7472 10.1346C15.7431 10.6537 16.9285 10.9411 18.2703 10.9889C19.843 11.0455 21.6405 10.7696 23.6163 10.1702C23.9651 10.5926 24.7267 11.6629 24.7267 12.9545V13.4242C24.7267 14.1845 25.3453 14.803 26.1056 14.803H26.8101C27.0173 14.803 27.216 14.8913 27.3552 15.0451C27.4962 15.2009 27.5621 15.4033 27.5409 15.6151C27.504 15.9838 27.1536 16.2726 26.743 16.2726H26.5448V16.2469C26.5448 16.0043 26.3481 15.8076 26.1055 15.8075C25.8629 15.8075 25.666 16.004 25.6659 16.2466C25.6635 19.3688 23.1216 21.9089 19.9995 21.9089Z" fill="#F78585"/>
<path d="M28.9244 31.5375H28.1896V30.8027C28.1896 30.56 27.9929 30.3633 27.7502 30.3633C27.5074 30.3633 27.3107 30.56 27.3107 30.8027V31.5375H26.5759C26.3332 31.5375 26.1365 31.7342 26.1365 31.9769C26.1365 32.2197 26.3332 32.4164 26.5759 32.4164H27.3107V33.1512C27.3107 33.3939 27.5074 33.5906 27.7502 33.5906C27.9929 33.5906 28.1896 33.3939 28.1896 33.1512V32.4164H28.9244C29.1672 32.4164 29.3639 32.2197 29.3639 31.9769C29.3639 31.7342 29.167 31.5375 28.9244 31.5375Z" fill="#F78585"/>
</svg>
