<svg width="40" height="40" viewBox="0 0 40 40" fill="none" xmlns="http://www.w3.org/2000/svg">
<circle cx="20" cy="20" r="20" fill="#FAE4F0"/>
<path d="M32.6192 19.3483H32.0449L29.6738 13.8738C29.9103 13.664 30.0597 13.3581 30.0597 13.0179C30.0597 12.3866 29.5462 11.8732 28.915 11.8732C28.592 11.8732 28.2999 12.0079 28.0916 12.2239C26.2544 11.3876 24.312 10.843 22.3083 10.6026C22.1825 9.83808 21.6989 9.19295 21.0357 8.84479V8.09785C21.0357 7.56866 20.6051 7.13818 20.076 7.13818H19.7429C19.2137 7.13818 18.7833 7.56876 18.7833 8.09785V8.84479C18.1174 9.19432 17.6326 9.8431 17.509 10.6115C15.5591 10.8531 13.6666 11.3834 11.8746 12.1902C11.669 11.994 11.391 11.8732 11.0851 11.8732C10.4539 11.8732 9.94044 12.3867 9.94044 13.0179C9.94044 13.3581 10.0898 13.664 10.3263 13.8738L7.95515 19.3483H7.38086C7.17047 19.3483 7 19.5187 7 19.7291V20.2259C7 21.8204 8.29731 23.1177 9.89179 23.1177H12.2783C13.8728 23.1177 15.1701 21.8203 15.1701 20.2259V19.7291C15.1701 19.5187 14.9996 19.3483 14.7892 19.3483H14.2149L11.8439 13.8738C11.9792 13.7537 12.0859 13.6021 12.1524 13.4306H18.3829V25.1686H18.1504C16.6625 25.1686 15.2586 26.3161 15.2586 28.1874C14.7788 28.2558 14.4084 28.6683 14.4084 29.1666V29.8714C14.4084 30.4175 14.8527 30.8617 15.3987 30.8617H19.0207C19.2311 30.8617 19.4016 30.6912 19.4016 30.4809C19.4016 30.2705 19.2311 30.1 19.0207 30.1H15.3987C15.2748 30.1 15.1702 29.9953 15.1702 29.8715V29.1667C15.1702 29.0428 15.2748 28.9382 15.3987 28.9382C15.5206 28.9382 24.2957 28.9382 24.4203 28.9382C24.5441 28.9382 24.6488 29.0428 24.6488 29.1667V29.8715C24.6488 29.9953 24.5441 30.1 24.4203 30.1H20.7983C20.5879 30.1 20.4174 30.2705 20.4174 30.4809C20.4174 30.6912 20.5879 30.8617 20.7983 30.8617H24.4203C24.9663 30.8617 25.4106 30.4175 25.4106 29.8714V29.1666C25.4106 28.6683 25.0401 28.2558 24.5603 28.1874C24.5603 26.3326 23.1707 25.1686 21.6685 25.1686H21.4361V20.6178C21.4361 20.4075 21.2656 20.237 21.0552 20.237C20.8448 20.237 20.6744 20.4075 20.6744 20.6178V25.1686H19.1449V13.3091C19.6417 13.4752 20.1775 13.4752 20.6744 13.3091V18.8404C20.6744 19.0508 20.8448 19.2214 21.0552 19.2214C21.2656 19.2214 21.4361 19.0509 21.4361 18.8404V13.4306H27.8477C27.9143 13.6021 28.0209 13.7537 28.1563 13.8739L25.7852 19.3483H25.2108C25.0004 19.3483 24.8299 19.5188 24.8299 19.7292V20.2259C24.8299 21.8204 26.1273 23.1177 27.7217 23.1177H30.1082C31.7027 23.1177 33 21.8204 33 20.2259V19.7292C33.0001 19.5187 32.8295 19.3483 32.6192 19.3483ZM11.0851 12.635C11.2969 12.635 11.476 12.8101 11.4667 13.0338C11.4666 13.0365 11.4669 13.0392 11.4668 13.0418C11.4539 13.2478 11.2812 13.4006 11.0851 13.4006C10.8778 13.4006 10.7022 13.2321 10.7022 13.0178C10.7021 12.8068 10.874 12.635 11.0851 12.635ZM14.4084 20.11C14.4084 21.523 13.3671 22.3559 12.2783 22.3559H9.89179C8.79974 22.3559 7.76172 21.521 7.76172 20.11C7.98562 20.11 14.1955 20.11 14.4084 20.11ZM13.3848 19.3483H8.78527L11.0319 14.1612C11.0671 14.1631 11.1072 14.1629 11.1382 14.1612L13.3848 19.3483ZM12.684 12.6688C14.2286 12.0259 15.8461 11.5932 17.5077 11.3788C17.5824 11.8529 17.7968 12.305 18.1412 12.6688H12.684ZM19.545 8.09785C19.545 7.98872 19.6337 7.89995 19.7429 7.89995H20.0759C20.1851 7.89995 20.2738 7.98872 20.2738 8.09785V8.59454C20.1605 8.57738 20.0231 8.56727 19.9094 8.56727C19.798 8.56727 19.6606 8.57707 19.545 8.59454V8.09785ZM21.6685 25.9304C22.7606 25.9304 23.7985 26.7654 23.7985 28.1764H16.0204C16.0204 26.7634 17.0617 25.9304 18.1504 25.9304C18.504 25.9304 21.3151 25.9304 21.6685 25.9304ZM19.9094 12.6689C18.9772 12.6689 18.22 11.9011 18.2406 10.962C18.2406 10.9611 18.2405 10.9602 18.2405 10.9593C18.2573 10.2479 18.7215 9.64353 19.3629 9.42136C20.4527 9.04223 21.5794 9.86448 21.5794 10.9989C21.5794 11.9211 20.8296 12.6689 19.9094 12.6689ZM21.6773 12.6688C22.0222 12.3039 22.2401 11.8439 22.3129 11.3697C23.9997 11.5808 25.641 12.0165 27.2078 12.6688H21.6773ZM28.5333 13.0339C28.5242 12.8125 28.7012 12.635 28.9149 12.635C29.126 12.635 29.2978 12.8068 29.2978 13.0179C29.2978 13.2321 29.1221 13.4007 28.9149 13.4007C28.7169 13.4007 28.5461 13.2464 28.5333 13.0419C28.5332 13.0392 28.5335 13.0366 28.5333 13.0339ZM28.8618 14.1612C28.8619 14.1612 28.862 14.1612 28.8621 14.1612C28.8964 14.1628 28.9307 14.1632 28.9681 14.1612L31.2147 19.3483H26.6152L28.8618 14.1612ZM30.1082 22.3559H27.7217C26.6296 22.3559 25.5917 21.5209 25.5917 20.1099C25.8156 20.1099 32.0254 20.1099 32.2383 20.1099C32.2383 21.523 31.197 22.3559 30.1082 22.3559Z" fill="#F78585"/>
<path d="M19.9094 9.8728C19.2884 9.8728 18.7832 10.378 18.7832 10.999C18.7832 11.62 19.2885 12.1252 19.9094 12.1252C20.5305 12.1252 21.0357 11.62 21.0357 10.999C21.0357 10.378 20.5305 9.8728 19.9094 9.8728ZM19.9094 11.3635C19.7085 11.3635 19.545 11.2 19.545 10.999C19.545 10.7981 19.7085 10.6346 19.9094 10.6346C20.1104 10.6346 20.2739 10.7981 20.2739 10.999C20.2739 11.2 20.1104 11.3635 19.9094 11.3635Z" fill="#F78585"/>
</svg>
