<svg width="40" height="40" viewBox="0 0 40 40" fill="none" xmlns="http://www.w3.org/2000/svg">
<circle cx="20" cy="20" r="20" fill="#FAE4F0"/>
<path d="M30.1101 11.3636H24.0121V9.59863C24.0121 9.2377 23.8407 8.89155 23.5537 8.67261C23.4827 8.61851 23.0943 8.33477 22.4142 8.06143C22.1265 7.94585 21.8219 7.84687 21.5086 7.76733C21.3124 7.71738 21.1125 7.83618 21.0626 8.03262C21.0128 8.229 21.1315 8.42866 21.328 8.47856C21.6097 8.55015 21.8831 8.63892 22.1405 8.74233C22.7558 8.9896 23.0946 9.24541 23.1087 9.25615C23.2149 9.33711 23.2783 9.46509 23.2783 9.59858V11.3636H22.4171V10.0503C22.4171 9.9124 22.3398 9.78613 22.2169 9.72344C21.7722 9.49653 20.8279 9.11582 19.4999 9.11582C18.1719 9.11582 17.2276 9.49648 16.7829 9.72344C16.66 9.78613 16.5827 9.91235 16.5827 10.0503V11.3636H15.7215V9.59863C15.7215 9.46519 15.7848 9.33716 15.8911 9.2562C15.9052 9.24541 16.2438 8.9897 16.8592 8.74233C17.6533 8.42324 18.5664 8.25459 19.4999 8.25459C19.6558 8.25459 19.8138 8.25937 19.9695 8.2689C20.1719 8.28125 20.3458 8.1272 20.3581 7.92495C20.3704 7.72271 20.2165 7.54873 20.0142 7.53638C19.8437 7.52603 19.6706 7.52075 19.4999 7.52075C18.4735 7.52075 17.4658 7.70771 16.5855 8.06143C15.9052 8.33486 15.5169 8.61855 15.446 8.67266C15.159 8.8915 14.9876 9.23765 14.9876 9.59858V11.3636H8.88994C7.8478 11.3636 7 12.2114 7 13.2535V18.389C7 18.9295 7.22788 19.4369 7.62783 19.7954V27.5892C7.62783 28.6313 8.47563 29.4791 9.51772 29.4791H24.0154C24.2181 29.4791 24.3823 29.3148 24.3823 29.1122C24.3823 28.9095 24.2181 28.7452 24.0154 28.7452H9.51777C8.88032 28.7452 8.36172 28.2266 8.36172 27.5892V20.341C8.89351 20.693 9.61738 21.0963 10.566 21.4774C10.7539 21.5528 10.9677 21.4618 11.0433 21.2737C11.1188 21.0856 11.0275 20.872 10.8396 20.7964C9.49565 20.2566 8.64082 19.6771 8.16035 19.2858C7.88931 19.0652 7.73389 18.7383 7.73389 18.389V13.2535C7.73389 12.616 8.25249 12.0974 8.88994 12.0974H30.1101C30.7476 12.0974 31.2662 12.616 31.2662 13.2535V18.389C31.2662 18.7383 31.1107 19.0652 30.8397 19.2858C30.291 19.7325 29.3043 20.3864 27.7196 20.9653C25.8978 21.6308 23.7371 22.0331 21.2934 22.1636V21.3258C21.2934 20.8435 20.901 20.4512 20.4188 20.4512H18.5809C18.0986 20.4512 17.7063 20.8435 17.7063 21.3258V22.1642C15.7306 22.0584 13.9306 21.7731 12.351 21.3147C12.1565 21.2584 11.9528 21.3703 11.8963 21.5649C11.8398 21.7595 11.9519 21.963 12.1465 22.0195C13.7903 22.4965 15.6593 22.7917 17.7063 22.8988V23.0713C17.7063 24.0603 18.5109 24.8648 19.4999 24.8648C20.4888 24.8648 21.2934 24.0603 21.2934 23.0713V22.8989C26.2552 22.6405 29.127 21.3474 30.6383 20.3424V27.5892C30.6383 28.2267 30.1197 28.7453 29.4822 28.7453H25.4831C25.2804 28.7453 25.1162 28.9096 25.1162 29.1122C25.1162 29.3148 25.2804 29.4792 25.4831 29.4792H29.4822C30.5243 29.4792 31.3721 28.6313 31.3721 27.5893V19.7954C31.7721 19.4369 32 18.9295 32 18.389V13.2535C32 12.2114 31.1522 11.3636 30.1101 11.3636ZM17.3166 10.2822C17.7541 10.0894 18.4995 9.84966 19.4999 9.84966C20.5002 9.84966 21.2456 10.0894 21.6832 10.2822V11.3636H17.3165L17.3166 10.2822ZM20.5595 23.0714C20.5595 23.6557 20.0842 24.1311 19.4999 24.1311C18.9155 24.1311 18.4401 23.6557 18.4401 23.0714V21.3258C18.4401 21.2481 18.5033 21.185 18.5809 21.185H20.4188C20.4964 21.185 20.5595 21.2481 20.5595 21.3258V23.0714Z" fill="#F78585"/>
</svg>
